HIERARCHY
ROOT Hips
{
	OFFSET 0.00000 0.00000 0.00000
	CHANNELS 6 Xposition Yposition Zposition Zrotation Yrotation Xrotation 
	JOINT LHipJoint
	{
		OFFSET 0 0 0
		CHANNELS 3 Zrotation Yrotation Xrotation
		JOINT LeftHip
		{
			OFFSET 1.46561 -1.72757 0.83774
			CHANNELS 3 Zrotation Yrotation Xrotation
			JOINT LeftKnee
			{
				OFFSET 2.48915 -6.83890 0.00000
				CHANNELS 3 Zrotation Yrotation Xrotation
				JOINT LeftAnkle
				{
					OFFSET 2.60555 -7.15868 0.00000
					CHANNELS 3 Zrotation Yrotation Xrotation
					JOINT LeftToe
					{
						OFFSET 0.19248 -0.52884 2.26738
						CHANNELS 3 Zrotation Yrotation Xrotation
						End Site
						{
							OFFSET 0.00000 -0.00000 1.17015
						}
					}
				}
			}
		}
	}
	JOINT RHipJoint
	{
		OFFSET 0 0 0
		CHANNELS 3 Zrotation Yrotation Xrotation
		JOINT RightHip
		{
			OFFSET -1.46918 -1.72757 0.83774
			CHANNELS 3 Zrotation Yrotation Xrotation
			JOINT RightKnee
			{
				OFFSET -2.49034 -6.84216 0.00000
				CHANNELS 3 Zrotation Yrotation Xrotation
				JOINT RightAnkle
				{
					OFFSET -2.65971 -7.30750 0.00000
					CHANNELS 3 Zrotation Yrotation Xrotation
					JOINT RightToe
					{
						OFFSET -0.19227 -0.52827 2.30785
						CHANNELS 3 Zrotation Yrotation Xrotation
						End Site
						{
							OFFSET -0.00000 -0.00000 1.18972
						}
					}
				}
			}
		}
	}
	JOINT lowerback
	{
		OFFSET 0 0 0
		CHANNELS 3 Zrotation Yrotation Xrotation
		JOINT Chest
		{
			OFFSET 0.02432 2.19909 -0.28000
			CHANNELS 3 Zrotation Yrotation Xrotation
			JOINT Chest2
			{
				OFFSET 0.03714 2.21816 -0.15261
				CHANNELS 3 Zrotation Yrotation Xrotation
				JOINT lowerneck
				{
					OFFSET 0 0 0
					CHANNELS 3 Zrotation Yrotation Xrotation
					JOINT Neck
					{
						OFFSET -0.01896 1.56165 0.21681
						CHANNELS 3 Zrotation Yrotation Xrotation
						JOINT Head
						{
							OFFSET 0.02744 1.56009 0.06764
							CHANNELS 3 Zrotation Yrotation Xrotation
							End Site
							{
								OFFSET 0.01212 1.60574 0.00298
							}
						}
					}
				}
				JOINT LeftCollar
				{
					OFFSET 0 0 0
					CHANNELS 3 Zrotation Yrotation Xrotation
					JOINT LeftShoulder
					{
						OFFSET 3.05595 1.48048 -0.60794
CHANNELS 3 Zrotation Xrotation Yrotation
						JOINT LeftElbow
						{
OFFSET 0 -5.206070 -0.000000
CHANNELS 3 Zrotation Xrotation Yrotation
							JOINT LeftWrist
							{
OFFSET 0 -3.399610 0.000000
CHANNELS 3 Zrotation Xrotation Yrotation
								JOINT lhand
								{
									OFFSET 0 0 0
CHANNELS 3 Zrotation Xrotation Yrotation
									JOINT LFingers
									{
OFFSET 0 -0.519690 0.000000
CHANNELS 3 Zrotation Xrotation Yrotation
										End Site
										{
OFFSET 0 -0.418990 0.000000
										}
									}
								}
								JOINT LThumb
								{
OFFSET 0 0.000000 0.000000
CHANNELS 3 Zrotation Xrotation Yrotation
									End Site
									{
OFFSET 0 -0.425390 0.425390
									}
								}
							}
						}
					}
				}
				JOINT RightCollar
				{
					OFFSET 0 0 0
					CHANNELS 3 Zrotation Yrotation Xrotation
					JOINT RightShoulder
					{
						OFFSET -2.99052 1.57608 -0.69102
CHANNELS 3 Zrotation Xrotation Yrotation
						JOINT RightElbow
						{
OFFSET 0 -5.322140 0.000000
CHANNELS 3 Zrotation Xrotation Yrotation
							JOINT RightWrist
							{
OFFSET 0 -3.512080 0.000000
CHANNELS 3 Zrotation Xrotation Yrotation
								JOINT rhand
								{
									OFFSET 0 0 0
CHANNELS 3 Zrotation Xrotation Yrotation
									JOINT RFingers
									{
OFFSET 0 -0.586680 0.000000
CHANNELS 3 Zrotation Xrotation Yrotation
										End Site
										{
OFFSET 0 -0.473000 0.000000
										}
									}
								}
								JOINT RThumb
								{
OFFSET 0 0.000000 0.000000
CHANNELS 3 Zrotation Xrotation Yrotation
									End Site
									{
OFFSET 0 -0.480220 0.480220
									}
								}
							}
						}
					}
				}
			}
		}
	}
}
MOTION
Frames: 12
Frame Time: 0.008333333333333333
0.365631 20.092934 -11.145416 -0.368850 0.438574 7.769460 0.000000 0.000000 0.000000 -15.541823 -5.821337 -27.563670 4.027166 12.195536 36.428652 0.886953 11.406180 17.469191 0.139322 2.405566 6.628030 0.000000 0.000000 0.000000 15.283893 4.964855 -30.256477 -5.429491 -13.851410 42.645959 -0.372549 -12.360343 13.017617 -1.307061 -7.241472 20.433102 -1.733559 0.462286 9.973609 2.063117 0.481309 6.133405 3.067642 0.159229 0.754503 -2.324319 -0.221521 -6.399623 0.001522 0.083311 27.198089 0.411098 -0.184364 9.621487 0.000000 0.000000 0.000000 5.867665 -39.411183 -41.791329 28.861849 -39.896990 10.672184 29.299354 -38.234319 13.126616 0.000000 0.000000 0.000000 -7.125000 0.000000 0.000000 1.341553 15.011696 0.948556 0.000000 0.000000 0.000000 -9.037325 -36.624454 32.774561 -20.321703 -31.027960 -5.696212 -24.047776 29.851485 19.132771 0.000000 0.000000 0.000000 7.125000 0.000000 0.000000 4.232538 50.733540 -0.598954
0.366245 20.139371 -11.079620 -0.385891 0.384935 7.678224 0.000000 0.000000 0.000000 -15.530296 -5.846324 -27.541476 3.878509 11.996161 35.719527 0.841877 11.244281 17.046810 0.131979 2.341559 6.450639 0.000000 0.000000 0.000000 15.320805 5.081594 -30.378075 -5.315435 -13.730085 42.167474 -0.362108 -11.965965 12.737520 -1.238707 -7.056663 19.883766 -1.732967 0.449329 9.933632 2.026909 0.464209 6.138037 3.031318 0.150867 0.782482 -2.240993 -0.197755 -6.433266 -0.008315 0.106238 27.295613 0.395711 -0.167812 9.662497 0.000000 0.000000 0.000000 5.913186 -39.492126 -41.884930 29.191975 -40.190237 10.884510 29.294182 -38.102626 13.021842 0.000000 0.000000 0.000000 -7.125000 0.000000 0.000000 1.348133 15.130739 0.949713 0.000000 0.000000 0.000000 -8.856996 -36.757089 33.063408 -20.281714 -30.980199 -5.675625 -24.127826 29.960039 19.096036 0.000000 0.000000 0.000000 7.125000 0.000000 0.000000 4.143710 50.708029 -0.583708
0.366756 20.178124 -11.012082 -0.399499 0.342671 7.595239 0.000000 0.000000 0.000000 -15.535063 -5.844864 -27.510935 3.723013 11.782129 34.965888 0.797769 11.042581 16.614092 0.123622 2.266543 6.242819 0.000000 0.000000 0.000000 15.359552 5.177452 -30.476797 -5.181993 -13.585684 41.602864 -0.351029 -11.558504 12.444595 -1.164754 -6.850657 19.273861 -1.730410 0.438005 9.870217 1.992441 0.449682 6.144920 2.995520 0.143631 0.825224 -2.183262 -0.176742 -6.471590 0.010857 0.122205 27.395086 0.394200 -0.153859 9.705305 0.000000 0.000000 0.000000 5.952840 -39.558919 -42.016498 29.502687 -40.463218 11.085508 29.347202 -37.906766 12.917686 0.000000 0.000000 0.000000 -7.125000 0.000000 0.000000 1.394339 15.241182 0.979042 0.000000 0.000000 0.000000 -8.683718 -36.857001 33.302480 -20.234639 -30.923923 -5.651450 -24.184670 30.073672 19.068884 0.000000 0.000000 0.000000 7.125000 0.000000 0.000000 4.080490 50.688860 -0.572846
0.367419 20.207934 -10.942195 -0.408939 0.334059 7.516574 0.000000 0.000000 0.000000 -15.558249 -5.826730 -27.461749 3.561378 11.552180 34.166243 0.758437 10.783734 16.199489 0.114430 2.180840 6.005666 0.000000 0.000000 0.000000 15.399132 5.230033 -30.541716 -5.028391 -13.415438 40.944650 -0.341920 -11.136945 12.168193 -1.089816 -6.634040 18.635685 -1.719893 0.421527 9.778304 1.962217 0.429395 6.154609 2.960328 0.133363 0.886913 -2.171007 -0.159518 -6.518706 0.078839 0.128167 27.511841 0.416640 -0.143922 9.756147 0.000000 0.000000 0.000000 5.981656 -39.614646 -42.193617 29.785962 -40.709065 11.269831 29.445243 -37.711513 12.836041 0.000000 0.000000 0.000000 -7.125000 0.000000 0.000000 1.469194 15.320095 1.029139 0.000000 0.000000 0.000000 -8.523326 -36.924321 33.481752 -20.173695 -30.850972 -5.620149 -24.207938 30.190261 19.042718 0.000000 0.000000 0.000000 7.125000 0.000000 0.000000 4.050846 50.664763 -0.566305
0.368008 20.228956 -10.869839 -0.424769 0.336123 7.445971 0.000000 0.000000 0.000000 -15.586082 -5.776134 -27.404502 3.396839 11.310176 33.334500 0.724116 10.472382 15.809142 0.104803 2.086786 5.745492 0.000000 0.000000 0.000000 15.447282 5.266347 -30.574972 -4.859174 -13.222679 40.209094 -0.336297 -10.692946 11.923309 -1.012554 -6.400938 17.952630 -1.702623 0.407227 9.653784 1.939546 0.412884 6.163280 2.928767 0.124911 0.965088 -2.185041 -0.144256 -6.572357 0.173111 0.129118 27.648639 0.452443 -0.136164 9.815631 0.000000 0.000000 0.000000 5.999288 -39.660207 -42.410751 30.041858 -40.928986 11.437161 29.560930 -37.583797 12.775746 0.000000 0.000000 0.000000 -7.125000 0.000000 0.000000 1.554144 15.372574 1.086934 0.000000 0.000000 0.000000 -8.379418 -36.960051 33.612877 -20.097718 -30.759866 -5.581297 -24.195041 30.301404 19.020764 0.000000 0.000000 0.000000 7.125000 0.000000 0.000000 4.058238 50.639142 -0.564774
0.368588 20.242040 -10.795473 -0.446318 0.351655 7.379768 0.000000 0.000000 0.000000 -15.617282 -5.700590 -27.339474 3.232003 11.059886 32.483790 0.695319 10.122018 15.455839 0.095392 1.991062 5.480871 0.000000 0.000000 0.000000 15.502176 5.284140 -30.579900 -4.679566 -13.012463 39.416966 -0.333824 -10.221691 11.709116 -0.933192 -6.151502 17.225204 -1.677035 0.393732 9.503020 1.922590 0.398344 6.167264 2.898380 0.117544 1.052557 -2.207583 -0.132039 -6.623711 0.274838 0.125376 27.804875 0.492003 -0.130707 9.882036 0.000000 0.000000 0.000000 6.007316 -39.697857 -42.666751 30.267977 -41.121716 11.585536 29.675545 -37.556506 12.739951 0.000000 0.000000 0.000000 -7.125000 0.000000 0.000000 1.636020 15.397679 1.143369 0.000000 0.000000 0.000000 -8.249461 -36.959703 33.700336 -20.012040 -30.656791 -5.537560 -24.144926 30.412503 19.013534 0.000000 0.000000 0.000000 7.125000 0.000000 0.000000 4.106186 50.622951 -0.569821
0.369168 20.247032 -10.719063 -0.474530 0.377995 7.314989 0.000000 0.000000 0.000000 -15.650054 -5.600519 -27.266419 3.069018 10.804389 31.624595 0.672345 9.746082 15.148937 0.086692 1.898685 5.225664 0.000000 0.000000 0.000000 15.563746 5.287259 -30.555441 -4.493114 -12.787920 38.581683 -0.334270 -9.729542 11.528545 -0.854484 -5.893151 16.475221 -1.643829 0.380865 9.330005 1.911221 0.385357 6.165256 2.869355 0.111086 1.145885 -2.233119 -0.123868 -6.668812 0.377815 0.115992 27.981445 0.532189 -0.128032 9.954969 0.000000 0.000000 0.000000 6.006939 -39.728137 -42.954279 30.458152 -41.282701 11.710738 29.772237 -37.646360 12.745936 0.000000 0.000000 0.000000 -7.125000 0.000000 0.000000 1.701571 15.377795 1.189998 0.000000 0.000000 0.000000 -8.131180 -36.923383 33.751363 -19.915997 -30.540881 -5.488647 -24.072469 30.520976 19.004607 0.000000 0.000000 0.000000 7.125000 0.000000 0.000000 4.175807 50.601164 -0.577235
0.369747 20.243802 -10.640743 -0.508808 0.413532 7.248389 0.000000 0.000000 0.000000 -15.684397 -5.476783 -27.185545 2.909896 10.546723 30.767017 0.655444 9.358030 14.897456 0.079038 1.813548 4.990613 0.000000 0.000000 0.000000 15.630643 5.279067 -30.501580 -4.303535 -12.552741 37.718044 -0.337283 -9.227695 11.384833 -0.779683 -5.636100 15.732398 -1.604557 0.368024 9.139553 1.904885 0.372908 6.156987 2.842037 0.105038 1.242253 -2.247757 -0.119385 -6.707151 0.466805 0.102981 28.176771 0.565455 -0.127369 10.033782 0.000000 0.000000 0.000000 5.999897 -39.751791 -43.265199 30.610758 -41.411131 11.811546 29.841238 -37.850307 12.788838 0.000000 0.000000 0.000000 -7.125000 0.000000 0.000000 1.744553 15.319654 1.222285 0.000000 0.000000 0.000000 -8.022038 -36.852538 33.772191 -19.810497 -30.413223 -5.435101 -23.984886 30.627319 18.990253 0.000000 0.000000 0.000000 7.125000 0.000000 0.000000 4.259040 50.571020 -0.585603
0.370319 20.232302 -10.560933 -0.546270 0.459488 7.176722 0.000000 0.000000 0.000000 -15.722904 -5.331909 -27.097634 2.756377 10.289585 29.919948 0.644896 8.969413 14.710201 0.072520 1.737456 4.780693 0.000000 0.000000 0.000000 15.699545 5.260448 -30.420209 -4.114603 -12.311119 36.841917 -0.342373 -8.729440 11.280325 -0.711704 -5.391251 15.028078 -1.560984 0.354062 8.937109 1.902054 0.359312 6.142710 2.816114 0.098589 1.339012 -2.226954 -0.116773 -6.741824 0.515552 0.091709 28.387051 0.578758 -0.126538 10.117743 0.000000 0.000000 0.000000 5.988482 -39.770076 -43.594042 30.729937 -41.510880 11.890512 29.881847 -38.144961 12.833389 0.000000 0.000000 0.000000 -7.125000 0.000000 0.000000 1.767893 15.263604 1.240727 0.000000 0.000000 0.000000 -7.919546 -36.748172 33.765003 -19.699555 -30.278665 -5.379062 -23.874855 30.737638 18.989577 0.000000 0.000000 0.000000 7.125000 0.000000 0.000000 4.367961 50.551686 -0.598599
0.370733 20.210772 -10.479702 -0.584443 0.508840 7.097395 0.000000 0.000000 0.000000 -15.768281 -5.163898 -27.003485 2.611386 10.036948 29.097201 0.640508 8.600932 14.593778 0.066475 1.663180 4.575668 0.000000 0.000000 0.000000 15.765209 5.242065 -30.310410 -3.931356 -12.067839 35.973214 -0.348252 -8.258033 11.209692 -0.655728 -5.178857 14.419464 -1.515359 0.342470 8.728110 1.898908 0.348796 6.119193 2.788374 0.094035 1.429849 -2.178513 -0.118346 -6.781156 0.538241 0.076804 28.625363 0.577847 -0.127366 10.213548 0.000000 0.000000 0.000000 5.977303 -39.784649 -43.942153 30.801894 -41.570831 11.938207 29.872076 -38.499945 12.876282 0.000000 0.000000 0.000000 -7.125000 0.000000 0.000000 1.756963 15.216239 1.234848 0.000000 0.000000 0.000000 -7.819187 -36.607405 33.724098 -19.582138 -30.135578 -5.320023 -23.761744 30.848430 18.986927 0.000000 0.000000 0.000000 7.125000 0.000000 0.000000 4.479250 50.529826 -0.611517
0.371217 20.180701 -10.397429 -0.616921 0.556872 7.004317 0.000000 0.000000 0.000000 -15.826853 -4.975748 -26.894960 2.474798 9.790631 28.302442 0.639731 8.253425 14.523608 0.060083 1.580918 4.348837 0.000000 0.000000 0.000000 15.820595 5.226808 -30.173525 -3.757346 -11.829073 35.131595 -0.354270 -7.825726 11.165173 -0.613364 -5.011674 13.942039 -1.474526 0.332405 8.519319 1.895205 0.339877 6.089773 2.762510 0.090244 1.514227 -2.127503 -0.121100 -6.832572 0.555443 0.061482 28.895135 0.574644 -0.128750 10.323867 0.000000 0.000000 0.000000 5.962027 -39.794223 -44.295264 30.832668 -41.596473 11.958609 29.830497 -38.838122 12.880839 0.000000 0.000000 0.000000 -7.125000 0.000000 0.000000 1.728115 15.216795 1.214524 0.000000 0.000000 0.000000 -7.722300 -36.432815 33.664858 -19.464721 -29.991936 -5.261191 -23.663495 30.961654 18.975388 0.000000 0.000000 0.000000 7.125000 0.000000 0.000000 4.573525 50.501021 -0.621170
0.371661 20.142612 -10.314067 -0.642399 0.597492 6.891560 0.000000 0.000000 0.000000 -15.899459 -4.765539 -26.765121 2.346410 9.551695 27.537885 0.640170 7.921081 14.473828 0.052318 1.474389 4.055108 0.000000 0.000000 0.000000 15.864389 5.218631 -30.006246 -3.594048 -11.598386 34.327321 -0.360210 -7.438195 11.141665 -0.583912 -4.892272 13.601718 -1.439944 0.326083 8.317048 1.889515 0.335394 6.057389 2.737842 0.088639 1.591876 -2.081851 -0.124760 -6.883073 0.574568 0.045192 29.176914 0.573039 -0.130868 10.439121 0.000000 0.000000 0.000000 5.943664 -39.797609 -44.650016 30.829447 -41.593781 11.956466 29.757145 -39.116005 12.837527 0.000000 0.000000 0.000000 -7.125000 0.000000 0.000000 1.682235 15.275998 1.180134 0.000000 0.000000 0.000000 -7.626760 -36.232753 33.587252 -19.346155 -29.846411 -5.202034 -23.581272 31.075971 18.963759 0.000000 0.000000 0.000000 7.125000 0.000000 0.000000 4.651934 50.474851 -0.628837
